<?xml version="1.0" encoding="UTF-8" standalone="no"?>
<svg
   xmlns:osb="http://www.openswatchbook.org/uri/2009/osb"
   xmlns:dc="http://purl.org/dc/elements/1.1/"
   xmlns:cc="http://creativecommons.org/ns#"
   xmlns:rdf="http://www.w3.org/1999/02/22-rdf-syntax-ns#"
   xmlns:svg="http://www.w3.org/2000/svg"
   xmlns="http://www.w3.org/2000/svg"
   xmlns:xlink="http://www.w3.org/1999/xlink"
   xmlns:sodipodi="http://sodipodi.sourceforge.net/DTD/sodipodi-0.dtd"
   xmlns:inkscape="http://www.inkscape.org/namespaces/inkscape"
   version="1.1"
   id="Layer_1"
   x="0px"
   y="0px"
   viewBox="0 0 48.000001 48.000001"
   xml:space="preserve"
   sodipodi:docname="blueman-trust.svg"
   width="48"
   height="48"
   inkscape:version="1.0.2 (e86c870879, 2021-01-15, custom)"><metadata
     id="metadata13"><rdf:RDF><cc:Work
         rdf:about=""><dc:format>image/svg+xml</dc:format><dc:type
           rdf:resource="http://purl.org/dc/dcmitype/StillImage" /><dc:title></dc:title></cc:Work></rdf:RDF></metadata><defs
     id="defs11"><linearGradient
       inkscape:collect="always"
       id="linearGradient2916"><stop
         style="stop-color:#cdf411;stop-opacity:1;"
         offset="0"
         id="stop2912" /><stop
         style="stop-color:#cdf411;stop-opacity:0;"
         offset="1"
         id="stop2914" /></linearGradient><linearGradient
       id="linearGradient2900"
       osb:paint="solid"><stop
         style="stop-color:#cdf411;stop-opacity:1;"
         offset="0"
         id="stop2898" /></linearGradient><linearGradient
       inkscape:collect="always"
       xlink:href="#linearGradient2916"
       id="linearGradient2918"
       x1="15.511408"
       y1="36.597832"
       x2="34.084064"
       y2="6.1616831"
       gradientUnits="userSpaceOnUse" /></defs><sodipodi:namedview
     pagecolor="#ffffff"
     bordercolor="#666666"
     borderopacity="1"
     objecttolerance="10"
     gridtolerance="10"
     guidetolerance="10"
     inkscape:pageopacity="0"
     inkscape:pageshadow="2"
     inkscape:window-width="1366"
     inkscape:window-height="768"
     id="namedview9"
     showgrid="false"
     fit-margin-top="0"
     fit-margin-left="0"
     fit-margin-right="0"
     fit-margin-bottom="0"
     inkscape:zoom="6.9723801"
     inkscape:cx="28.345694"
     inkscape:cy="34.271134"
     inkscape:window-x="0"
     inkscape:window-y="0"
     inkscape:window-maximized="0"
     inkscape:current-layer="Layer_1" /><style
     type="text/css"
     id="style2">.st0{fill-rule:evenodd;clip-rule:evenodd;}</style><g
     id="g6"
     style="fill:url(#linearGradient2918);fill-opacity:1;fill-rule:nonzero"><path
       class="st0"
       d="m 24.386719,48 h -0.773438 c 0,-6.308594 -2.359375,-11.824219 -7.074219,-16.539062 C 11.824219,26.746094 6.3124998,24.386719 0,24.386719 v -0.773438 c 6.3124998,0 11.824219,-2.359375 16.539062,-7.085937 C 21.253906,11.800781 23.613281,6.2890624 23.613281,0 h 0.773438 c 0,6.3085936 2.359375,11.824219 7.074218,16.539062 C 36.175781,21.253906 41.6875,23.613281 48,23.613281 v 0.773438 c -6.308594,0 -11.824219,2.359375 -16.539063,7.074218 C 26.746094,36.175781 24.386719,41.6875 24.386719,48 Z"
       id="path4"
       style="stroke-width:0;stroke-miterlimit:4;stroke-dasharray:none;fill:url(#linearGradient2918);fill-opacity:1;fill-rule:nonzero" /><path
       class="st0"
       d="m 24.386719,48 h -0.773438 c 0,-6.308594 -2.359375,-11.824219 -7.074219,-16.539062 C 11.824219,26.746094 6.3124998,24.386719 0,24.386719 v -0.773438 c 6.3124998,0 11.824219,-2.359375 16.539062,-7.085937 C 21.253906,11.800781 23.613281,6.2890624 23.613281,0 h 0.773438 c 0,6.3085936 2.359375,11.824219 7.074218,16.539062 C 36.175781,21.253906 41.6875,23.613281 48,23.613281 v 0.773438 c -6.308594,0 -11.824219,2.359375 -16.539063,7.074218 C 26.746094,36.175781 24.386719,41.6875 24.386719,48 Z"
       id="path838"
       style="stroke-width:0;stroke-miterlimit:4;stroke-dasharray:none;fill:url(#linearGradient2918);fill-opacity:1;fill-rule:nonzero" /></g><g
     inkscape:groupmode="layer"
     id="layer1"
     inkscape:label="Layer 1" /></svg>
