<?xml version="1.0" encoding="UTF-8" standalone="no"?>
<svg
   xmlns:dc="http://purl.org/dc/elements/1.1/"
   xmlns:cc="http://creativecommons.org/ns#"
   xmlns:rdf="http://www.w3.org/1999/02/22-rdf-syntax-ns#"
   xmlns:svg="http://www.w3.org/2000/svg"
   xmlns="http://www.w3.org/2000/svg"
   xmlns:sodipodi="http://sodipodi.sourceforge.net/DTD/sodipodi-0.dtd"
   xmlns:inkscape="http://www.inkscape.org/namespaces/inkscape"
   height="8.3606663"
   width="16"
   version="1.1"
   id="svg585"
   sodipodi:docname="dialog-password.svg"
   inkscape:version="1.0.2 (e86c870879, 2021-01-15, custom)">
  <metadata
     id="metadata591">
    <rdf:RDF>
      <cc:Work
         rdf:about="">
        <dc:format>image/svg+xml</dc:format>
        <dc:type
           rdf:resource="http://purl.org/dc/dcmitype/StillImage" />
        <dc:title></dc:title>
      </cc:Work>
    </rdf:RDF>
  </metadata>
  <defs
     id="defs589" />
  <sodipodi:namedview
     pagecolor="#ffffff"
     bordercolor="#666666"
     borderopacity="1"
     objecttolerance="10"
     gridtolerance="10"
     guidetolerance="10"
     inkscape:pageopacity="0"
     inkscape:pageshadow="2"
     inkscape:window-width="1366"
     inkscape:window-height="750"
     id="namedview587"
     showgrid="false"
     fit-margin-top="0"
     fit-margin-left="0"
     fit-margin-right="0"
     fit-margin-bottom="0"
     inkscape:zoom="23.291667"
     inkscape:cx="11.999541"
     inkscape:cy="11.99999"
     inkscape:window-x="0"
     inkscape:window-y="18"
     inkscape:window-maximized="0"
     inkscape:current-layer="svg585" />
  <g
     transform="matrix(0.47140237,0.47140237,-0.47140237,0.47140237,493.28729,-492.08604)"
     id="g583">
    <g
       transform="matrix(0.70711,0.70711,-0.70711,0.70711,740.06,298.16)"
       id="g581">
      <path
         d="m 10.541,1028.9 c -3.3134,0 -5.9997,2.6 -5.9997,6 0,3.3 2.6863,6 5.9997,6 3.314,0 6,-2.7 6,-6 0,-3.4 -2.686,-6 -6,-6 z m 0,2 c 1.105,0 2,0.9 2,2 0,1.1 -0.895,2 -2,2 -1.1042,0 -1.9997,-0.9 -1.9997,-2 0,-1.1 0.8955,-2 1.9997,-2 z"
         fill="#f39c12"
         id="path567" />
      <g
         fill="#f1c40f"
         id="g575">
        <path
           d="M 10,0 C 6.6863,0 4,2.6863 4,6 c 0,3.3137 2.6863,6 6,6 3.314,0 6,-2.6863 6,-6 0,-3.3137 -2.686,-6 -6,-6 z m 0,2 c 1.105,0 2,0.8954 2,2 0,1.1046 -0.895,2 -2,2 C 8.8954,6 8,5.1046 8,4 8,2.8954 8.8954,2 10,2 Z"
           transform="translate(0,1028.4)"
           id="path569" />
        <rect
           height="2"
           width="6"
           y="1039.4"
           x="7"
           id="rect571" />
        <path
           d="m 8,13 v 9 l 2,2 2,-2 v -1 l -2,-1 2,-1 v -1 l -1,-1 1,-1 v -3 z"
           transform="translate(0,1028.4)"
           id="path573" />
      </g>
      <path
         d="m 11,1041.4 v 4 l 1,-1 v -3 z m 0,4 v 2.5 l 1,-0.5 v -1 z m 0,3.5 v 2.5 l 1,-1 v -1 z"
         fill="#f39c12"
         id="path577" />
      <path
         d="m 9,1041.4 v 10 l 1,1 v -4 -7 z"
         fill="#f39c12"
         id="path579" />
    </g>
  </g>
</svg>
