<?xml version="1.0" encoding="UTF-8" standalone="no"?>
<svg
   xmlns:dc="http://purl.org/dc/elements/1.1/"
   xmlns:cc="http://creativecommons.org/ns#"
   xmlns:rdf="http://www.w3.org/1999/02/22-rdf-syntax-ns#"
   xmlns:svg="http://www.w3.org/2000/svg"
   xmlns="http://www.w3.org/2000/svg"
   xmlns:sodipodi="http://sodipodi.sourceforge.net/DTD/sodipodi-0.dtd"
   xmlns:inkscape="http://www.inkscape.org/namespaces/inkscape"
   version="1.1"
   id="Layer_1"
   x="0px"
   y="0px"
   viewBox="0 0 16 16"
   xml:space="preserve"
   sodipodi:docname="noInternetConnection.svg"
   width="16"
   height="16"
   inkscape:version="1.0.2 (e86c870879, 2021-01-15, custom)"><metadata
   id="metadata41"><rdf:RDF><cc:Work
       rdf:about=""><dc:format>image/svg+xml</dc:format><dc:type
         rdf:resource="http://purl.org/dc/dcmitype/StillImage" /><dc:title></dc:title></cc:Work></rdf:RDF></metadata><defs
   id="defs39" /><sodipodi:namedview
   pagecolor="#ffffff"
   bordercolor="#666666"
   borderopacity="1"
   objecttolerance="10"
   gridtolerance="10"
   guidetolerance="10"
   inkscape:pageopacity="0"
   inkscape:pageshadow="2"
   inkscape:window-width="1366"
   inkscape:window-height="752"
   id="namedview37"
   showgrid="false"
   inkscape:zoom="37.153696"
   inkscape:cx="9.00924"
   inkscape:cy="10.857595"
   inkscape:window-x="0"
   inkscape:window-y="16"
   inkscape:window-maximized="0"
   inkscape:current-layer="Layer_1"
   inkscape:document-rotation="0" />
<circle
   style="fill:#609399;stroke-width:0.999999"
   cx="10.928204"
   cy="2.9282033"
   id="circle2"
   r="7.7333436"
   transform="rotate(30)" />
<path
   style="fill:#b4e5ea;stroke-width:0.999996"
   d="M 11.997995,1.0716177 C 8.1722903,-1.1371538 3.2803891,0.17362713 1.0716177,3.9993315 -1.1371536,7.8250357 0.17362713,12.716937 3.9993316,14.925708 7.8250357,17.13448 12.716938,15.823699 14.925708,11.997995 17.13448,8.1722902 15.823699,3.280389 11.997995,1.0716177 Z M 4.8814926,6.1989639 C 5.1050958,5.8116717 5.3422196,5.439329 5.5903103,5.0846107 6.3720849,5.7317656 7.2866848,6.3733849 8.2869958,6.9660316 L 7.24856,8.7646552 C 6.235185,8.1946996 5.2222264,7.7234423 4.2708594,7.3699677 4.4539779,6.9778098 4.6578894,6.5862561 4.8814926,6.1989639 Z M 10.054454,4.9711527 C 10.87731,5.4063625 11.763499,5.6920091 12.672776,5.8206233 12.52215,6.569559 12.276277,7.3514265 11.944484,8.137012 11.00911,7.7915802 10.008222,7.3284106 9.0153859,6.7707462 l 1.0390301,-1.7996518 5.4e-5,3.12e-5 z m 0.266768,-0.4620556 1.630539,-2.824178 c 0.652769,0.5267817 0.964501,1.552834 0.881857,2.9297097 -0.01333,0.222052 -0.03705,0.4491769 -0.07021,0.6801315 C 11.915697,5.1766865 11.089091,4.912632 10.321222,4.5090971 Z M 11.489977,1.4183073 9.85839,4.2442984 C 9.1196946,3.7861716 8.4720526,3.2063924 7.9400588,2.5343489 8.1293866,2.3848313 8.3201589,2.2459969 8.5118454,2.1194519 9.6629054,1.3594265 10.707385,1.1163839 11.489977,1.4183073 Z M 9.5916378,4.7063268 8.5536394,6.5041928 C 7.5742967,5.9232192 6.6727249,5.2879673 5.9058698,4.6506529 6.4153042,3.9771892 6.963653,3.3783624 7.5309052,2.8764602 8.1027092,3.5960932 8.7983419,4.2166044 9.5916378,4.7063268 Z M 6.9819177,9.2264946 5.9439195,11.02436 C 5.1231749,10.58218 4.2379645,10.290027 3.3288264,10.154674 3.4798604,9.4124684 3.7242851,8.638171 4.0528045,7.860256 4.9881627,8.2057147 5.989093,8.6688729 6.9819177,9.2264946 Z M 5.6771356,11.486443 4.0455488,14.312435 C 3.3927801,13.785653 3.081048,12.7596 3.1636922,11.382725 c 0.013775,-0.229262 0.038596,-0.463909 0.073419,-0.702631 0.8479762,0.124684 1.6739281,0.395684 2.4400244,0.806349 z M 4.5073498,14.579018 6.1378897,11.75484 c 0.7333783,0.463213 1.375333,1.047031 1.9015114,1.722211 C 7.8559556,13.621197 7.6711197,13.755306 7.485508,13.877889 6.3344209,14.6379 5.2899402,14.880943 4.5073498,14.579018 Z M 6.4046576,11.292784 7.4437026,9.4931063 C 8.4230451,10.07408 9.3246174,10.709332 10.091472,11.346646 9.5770047,12.026765 9.0227976,12.630616 8.4495673,13.135561 7.8834022,12.412472 7.1929612,11.78778 6.4046576,11.292784 Z M 7.7103299,9.0312942 8.7487657,7.2326707 C 9.7621413,7.8026265 10.7751,8.2738837 11.726467,8.6273587 11.543308,9.0195286 11.339424,9.4110986 11.11582,9.7983908 10.892217,10.185682 10.655075,10.558051 10.407001,10.912743 9.625214,10.265544 8.7106295,9.6238982 7.7103299,9.0312942 Z M 12.231178,8.8056839 c 1.203018,0.4030853 2.283738,0.6022528 3.10886,0.5563673 -0.1508,0.8122248 -0.439515,1.6131208 -0.876114,2.3693318 -0.436598,0.756212 -0.985837,1.406694 -1.613845,1.943403 -0.372796,-0.737504 -1.085667,-1.573867 -2.036257,-2.414168 0.267984,-0.380177 0.523694,-0.779707 0.763826,-1.195627 0.240131,-0.4159206 0.458264,-0.8371101 0.65353,-1.2593071 z m 3.18872,0.016237 C 14.668235,8.8904838 13.624476,8.7042855 12.448224,8.3137676 12.79413,7.4889946 13.0496,6.6666322 13.204706,5.8778185 c 0.63853,0.047089 1.284321,0.017302 1.923691,-0.091162 0.301858,0.973918 0.404927,2.007757 0.291501,3.0352644 z M 14.949495,5.2755371 c -0.550552,0.08654 -1.105635,0.1105037 -1.655292,0.073704 0.0337,-0.2383545 0.05798,-0.4729915 0.07174,-0.702661 0.04723,-0.7869453 -0.02718,-1.4776618 -0.214086,-2.0511613 0.801156,0.7629361 1.407251,1.6818206 1.797638,2.6801183 z M 8.218039,1.6744365 C 8.018773,1.8059859 7.820568,1.9499455 7.6239968,2.1046976 7.3104543,1.6444994 7.0477451,1.1480593 6.8425292,0.62358816 7.9142953,0.45489015 9.0271168,0.51803162 10.101452,0.83430279 9.5113234,0.95914732 8.8759091,1.2400416 8.218039,1.6744365 Z M 6.3114351,0.7269192 c 0.2308161,0.611733 0.5340995,1.1887466 0.901117,1.720046 C 6.6140141,2.9721865 6.0364608,3.5986007 5.5010208,4.3027972 4.574724,3.4794087 3.8915922,2.668586 3.5751105,1.9833296 4.3976307,1.3791081 5.3309372,0.95462458 6.3114351,0.7269192 Z M 3.1472473,2.32254 C 3.5200435,3.0600444 4.2329143,3.8964071 5.1835048,4.736708 4.9155203,5.1168848 4.659812,5.5164159 4.4196802,5.9323363 4.1795485,6.3482566 3.9614142,6.7694451 3.7661479,7.191642 2.5631309,6.7885569 1.482411,6.5893896 0.6572884,6.6352752 0.80811488,5.8230657 1.0968308,5.0221704 1.5334297,4.2659589 1.9700286,3.5097474 2.5192664,2.8592644 3.1472473,2.32254 Z M 0.57742823,7.1754049 C 1.3290914,7.1068426 2.3728501,7.2930412 3.5491012,7.6835587 3.2070119,8.4993499 2.9532396,9.3127716 2.7976846,10.093678 2.1540842,10.041497 1.502734,10.067352 0.8575228,10.17331 0.56448384,9.2103639 0.465444,8.1898552 0.57742823,7.1754049 Z M 1.0335824,10.684916 c 0.5568292,-0.08454 1.1180976,-0.10522 1.6734126,-0.06378 -0.035734,0.247611 -0.06132,0.491269 -0.075596,0.729586 -0.047235,0.786945 0.027184,1.477662 0.2140864,2.051161 -0.8110232,-0.772281 -1.4221163,-1.704441 -1.811903,-2.716967 z m 6.7457052,3.637973 c 0.1920363,-0.126775 0.383085,-0.26509 0.5726676,-0.413486 0.3066828,0.457645 0.5634718,0.950342 0.7638159,1.470377 -1.0597454,0.161062 -2.1585857,0.09564 -3.2198809,-0.216783 0.5901126,-0.124819 1.2255264,-0.405713 1.8833974,-0.840108 z m 1.8685621,0.956293 C 9.4220966,14.671239 9.1249982,14.097074 8.7649519,13.567635 9.3705321,13.038903 9.954967,12.406504 10.496306,11.694529 c 0.926296,0.823389 1.609428,1.634211 1.92591,2.319468 -0.833108,0.611998 -1.779974,1.039658 -2.7743663,1.265185 z"
   id="path4" />
<g
   id="g6"
   transform="matrix(0.02706329,0.015625,-0.015625,0.02706329,5.0717968,-2.9282032)"
   style="stroke-width:32">
</g>
<g
   id="g8"
   transform="matrix(0.02706329,0.015625,-0.015625,0.02706329,5.0717968,-2.9282032)"
   style="stroke-width:32">
</g>
<g
   id="g10"
   transform="matrix(0.02706329,0.015625,-0.015625,0.02706329,5.0717968,-2.9282032)"
   style="stroke-width:32">
</g>
<g
   id="g12"
   transform="matrix(0.02706329,0.015625,-0.015625,0.02706329,5.0717968,-2.9282032)"
   style="stroke-width:32">
</g>
<g
   id="g14"
   transform="matrix(0.02706329,0.015625,-0.015625,0.02706329,5.0717968,-2.9282032)"
   style="stroke-width:32">
</g>
<g
   id="g16"
   transform="matrix(0.02706329,0.015625,-0.015625,0.02706329,5.0717968,-2.9282032)"
   style="stroke-width:32">
</g>
<g
   id="g18"
   transform="matrix(0.02706329,0.015625,-0.015625,0.02706329,5.0717968,-2.9282032)"
   style="stroke-width:32">
</g>
<g
   id="g20"
   transform="matrix(0.02706329,0.015625,-0.015625,0.02706329,5.0717968,-2.9282032)"
   style="stroke-width:32">
</g>
<g
   id="g22"
   transform="matrix(0.02706329,0.015625,-0.015625,0.02706329,5.0717968,-2.9282032)"
   style="stroke-width:32">
</g>
<g
   id="g24"
   transform="matrix(0.02706329,0.015625,-0.015625,0.02706329,5.0717968,-2.9282032)"
   style="stroke-width:32">
</g>
<g
   id="g26"
   transform="matrix(0.02706329,0.015625,-0.015625,0.02706329,5.0717968,-2.9282032)"
   style="stroke-width:32">
</g>
<g
   id="g28"
   transform="matrix(0.02706329,0.015625,-0.015625,0.02706329,5.0717968,-2.9282032)"
   style="stroke-width:32">
</g>
<g
   id="g30"
   transform="matrix(0.02706329,0.015625,-0.015625,0.02706329,5.0717968,-2.9282032)"
   style="stroke-width:32">
</g>
<g
   id="g32"
   transform="matrix(0.02706329,0.015625,-0.015625,0.02706329,5.0717968,-2.9282032)"
   style="stroke-width:32">
</g>
<g
   id="g34"
   transform="matrix(0.02706329,0.015625,-0.015625,0.02706329,5.0717968,-2.9282032)"
   style="stroke-width:32">
</g>
<rect
   style="fill:#ffffff;fill-opacity:1;stroke:#3effff;stroke-width:0;stroke-linecap:round;stroke-linejoin:round;stroke-miterlimit:4;stroke-dasharray:none;stroke-opacity:1"
   id="rect868-3"
   width="2.9999988"
   height="11.499999"
   x="9.7939377"
   y="-1.787176"
   transform="rotate(45)" /><rect
   style="fill:#ffffff;fill-opacity:1;stroke:#3effff;stroke-width:0;stroke-linecap:round;stroke-linejoin:round;stroke-miterlimit:4;stroke-dasharray:none;stroke-opacity:1"
   id="rect868-3-7"
   width="2.9999988"
   height="11.499999"
   x="2.4632916"
   y="-17.043779"
   transform="rotate(135)" /><rect
   style="mix-blend-mode:normal;fill:#be0000;fill-opacity:1;stroke:#fbffff;stroke-width:0;stroke-linecap:round;stroke-linejoin:round;stroke-miterlimit:4;stroke-dasharray:none;stroke-opacity:1;paint-order:normal"
   id="rect866"
   width="10.5"
   height="1.9999987"
   x="6.019547"
   y="2.9503665"
   transform="rotate(45)" /><rect
   style="fill:#be0000;fill-opacity:1;stroke:#3effff;stroke-width:0;stroke-linecap:round;stroke-linejoin:round;stroke-miterlimit:4;stroke-dasharray:none;stroke-opacity:1"
   id="rect868"
   width="1.9999987"
   height="10.5"
   x="10.277471"
   y="-1.2621773"
   transform="rotate(45)" /></svg>
