<?xml version="1.0" encoding="UTF-8" standalone="no"?>
<svg
   xmlns:dc="http://purl.org/dc/elements/1.1/"
   xmlns:cc="http://creativecommons.org/ns#"
   xmlns:rdf="http://www.w3.org/1999/02/22-rdf-syntax-ns#"
   xmlns:svg="http://www.w3.org/2000/svg"
   xmlns="http://www.w3.org/2000/svg"
   xmlns:sodipodi="http://sodipodi.sourceforge.net/DTD/sodipodi-0.dtd"
   xmlns:inkscape="http://www.inkscape.org/namespaces/inkscape"
   version="1.1"
   id="Capa_1"
   x="0px"
   y="0px"
   viewBox="0 0 16 11.094"
   xml:space="preserve"
   sodipodi:docname="joystic.svg"
   width="16"
   height="11.094"
   inkscape:version="1.0.2 (e86c870879, 2021-01-15, custom)"><metadata
   id="metadata167"><rdf:RDF><cc:Work
       rdf:about=""><dc:format>image/svg+xml</dc:format><dc:type
         rdf:resource="http://purl.org/dc/dcmitype/StillImage" /><dc:title></dc:title></cc:Work></rdf:RDF></metadata><defs
   id="defs165" /><sodipodi:namedview
   pagecolor="#ffffff"
   bordercolor="#666666"
   borderopacity="1"
   objecttolerance="10"
   gridtolerance="10"
   guidetolerance="10"
   inkscape:pageopacity="0"
   inkscape:pageshadow="2"
   inkscape:window-width="1366"
   inkscape:window-height="750"
   id="namedview163"
   showgrid="false"
   inkscape:zoom="9.6066267"
   inkscape:cx="23.498129"
   inkscape:cy="8.62837"
   inkscape:window-x="0"
   inkscape:window-y="18"
   inkscape:window-maximized="0"
   inkscape:current-layer="Capa_1" />
<path
   style="fill:#38454f;stroke-width:0.274964"
   d="m 8.0000001,8.344259 h 2.5973049 c 0.467713,0 0.920028,0.167453 1.275281,0.471837 l 2.509867,2.152415 c 0.168003,0.144081 0.41382,0.168827 0.60052,0.05032 C 17.594027,9.3663 14.426997,2.844716 13.799255,1.6607227 13.732715,1.5350647 13.623004,0.85342981 13.489646,0.80476121 l -2.11062,-0.7674232 c -0.18505,-0.067366 -0.390998,-0.042619 -0.554601,0.066541 0,0 -0.595021,0.3802746 -0.728378,0.3802746 H 7.7794793 5.9787433 c -0.1333573,0 -0.8031685,-0.3802746 -0.8031685,-0.3802746 -0.1638782,-0.1091623 -0.3698259,-0.133909 -0.5546014,-0.066543 L 2.5103535,0.80475921 C 2.3767212,0.85342821 2.2672857,1.5350627 2.2007446,1.6607207 1.5730029,2.844714 -1.5940269,9.366298 1.0170266,11.018829 c 0.1869752,0.118234 0.4327926,0.09349 0.6005204,-0.05032 L 4.1274139,8.816096 C 4.4826668,8.511712 4.9349818,8.344259 5.4026947,8.344259 Z"
   id="path114" />
<circle
   style="fill:#546a79;stroke-width:0.274964"
   cx="10.114744"
   cy="5.8695869"
   r="1.0998541"
   id="circle116" />
<circle
   style="fill:#546a79;stroke-width:0.274964"
   cx="3.7905836"
   cy="3.1199522"
   r="1.0998541"
   id="circle118" />
<circle
   style="fill:#ebba16;stroke-width:0.274964"
   cx="12.039489"
   cy="2.0200977"
   r="0.54992706"
   id="circle120" />
<circle
   style="fill:#7383bf;stroke-width:0.274964"
   cx="10.939634"
   cy="3.1199522"
   r="0.54992706"
   id="circle122" />
<circle
   style="fill:#d75a4a;stroke-width:0.274964"
   cx="13.139343"
   cy="3.1199522"
   r="0.54992706"
   id="circle124" />
<circle
   style="fill:#61b872;stroke-width:0.274964"
   cx="12.039489"
   cy="4.2198057"
   r="0.54992706"
   id="circle126" />
<path
   style="fill:#afb6bb;stroke-width:0.274964"
   d="m 8.7399269,0.76736421 c 0,-0.052793 -0.00522,-0.1044862 -0.014848,-0.1542546 -0.00962,-0.049768 -0.030521,-0.092938 -0.059117,-0.1289578 -0.3219823,0 -0.5719241,0 -0.6816346,0 -0.023372,0.00192 -0.045369,0.00825 -0.069016,0.00825 -0.023922,0 -0.045919,-0.00605 -0.069016,-0.00825 -0.00357,0 -0.066541,0 -0.066541,0 h -0.617843 c -0.024197,0.031346 -0.043444,0.067366 -0.052793,0.1099854 -0.023922,0.1094354 -0.025847,0.2273948 0,0.3494786 0.068191,0.32170689 0.3368303,0.58099789 0.6610123,0.63626589 0.519406,0.08854 0.9697963,-0.309334 0.9697963,-0.81251749 z"
   id="path128" />
<path
   style="fill:#546a79;stroke-width:0.274964"
   d="M 7.5025911,5.224248 H 6.599061 v -0.90353 c 0,-0.108611 -0.087988,-0.196324 -0.196324,-0.196324 H 5.6958058 c -0.1086106,0 -0.1963239,0.08799 -0.1963239,0.196324 v 0.90353 H 4.5959518 c -0.1086106,0 -0.196324,0.08799 -0.196324,0.196324 v 0.706931 c 0,0.108611 0.087988,0.196324 0.196324,0.196324 h 0.9032551 v 0.90353 c 0,0.108611 0.087988,0.196324 0.1963239,0.196324 H 6.402462 c 0.1086106,0 0.196324,-0.08799 0.196324,-0.196324 v -0.90353 h 0.9035301 c 0.1086106,0 0.1963239,-0.08799 0.1963239,-0.196324 V 5.420572 C 7.698915,5.312236 7.610927,5.224248 7.5025911,5.224248 Z"
   id="path130" />
<g
   id="g132"
   transform="matrix(0.27496351,0,0,0.27496351,-6.3430044e-5,-2.4530085)">
</g>
<g
   id="g134"
   transform="matrix(0.27496351,0,0,0.27496351,-6.3430044e-5,-2.4530085)">
</g>
<g
   id="g136"
   transform="matrix(0.27496351,0,0,0.27496351,-6.3430044e-5,-2.4530085)">
</g>
<g
   id="g138"
   transform="matrix(0.27496351,0,0,0.27496351,-6.3430044e-5,-2.4530085)">
</g>
<g
   id="g140"
   transform="matrix(0.27496351,0,0,0.27496351,-6.3430044e-5,-2.4530085)">
</g>
<g
   id="g142"
   transform="matrix(0.27496351,0,0,0.27496351,-6.3430044e-5,-2.4530085)">
</g>
<g
   id="g144"
   transform="matrix(0.27496351,0,0,0.27496351,-6.3430044e-5,-2.4530085)">
</g>
<g
   id="g146"
   transform="matrix(0.27496351,0,0,0.27496351,-6.3430044e-5,-2.4530085)">
</g>
<g
   id="g148"
   transform="matrix(0.27496351,0,0,0.27496351,-6.3430044e-5,-2.4530085)">
</g>
<g
   id="g150"
   transform="matrix(0.27496351,0,0,0.27496351,-6.3430044e-5,-2.4530085)">
</g>
<g
   id="g152"
   transform="matrix(0.27496351,0,0,0.27496351,-6.3430044e-5,-2.4530085)">
</g>
<g
   id="g154"
   transform="matrix(0.27496351,0,0,0.27496351,-6.3430044e-5,-2.4530085)">
</g>
<g
   id="g156"
   transform="matrix(0.27496351,0,0,0.27496351,-6.3430044e-5,-2.4530085)">
</g>
<g
   id="g158"
   transform="matrix(0.27496351,0,0,0.27496351,-6.3430044e-5,-2.4530085)">
</g>
<g
   id="g160"
   transform="matrix(0.27496351,0,0,0.27496351,-6.3430044e-5,-2.4530085)">
</g>
</svg>
