<?xml version="1.0" encoding="UTF-8" standalone="no"?>
<svg
   xmlns:dc="http://purl.org/dc/elements/1.1/"
   xmlns:cc="http://creativecommons.org/ns#"
   xmlns:rdf="http://www.w3.org/1999/02/22-rdf-syntax-ns#"
   xmlns:svg="http://www.w3.org/2000/svg"
   xmlns="http://www.w3.org/2000/svg"
   xmlns:sodipodi="http://sodipodi.sourceforge.net/DTD/sodipodi-0.dtd"
   xmlns:inkscape="http://www.inkscape.org/namespaces/inkscape"
   id="Layer_1"
   version="1.1"
   viewBox="0 0 9.3299999 16"
   xml:space="preserve"
   sodipodi:docname="phone.svg"
   width="9.3299999"
   height="16"
   inkscape:version="1.0.2 (e86c870879, 2021-01-15, custom)"><metadata
     id="metadata145"><rdf:RDF><cc:Work
         rdf:about=""><dc:format>image/svg+xml</dc:format><dc:type
           rdf:resource="http://purl.org/dc/dcmitype/StillImage" /><dc:title></dc:title></cc:Work></rdf:RDF></metadata><defs
     id="defs143" /><sodipodi:namedview
     pagecolor="#ffffff"
     bordercolor="#666666"
     borderopacity="1"
     objecttolerance="10"
     gridtolerance="10"
     guidetolerance="10"
     inkscape:pageopacity="0"
     inkscape:pageshadow="2"
     inkscape:window-width="1366"
     inkscape:window-height="752"
     id="namedview141"
     showgrid="false"
     inkscape:zoom="2.0660776"
     inkscape:cx="95.70291"
     inkscape:cy="12.950159"
     inkscape:window-x="0"
     inkscape:window-y="16"
     inkscape:window-maximized="0"
     inkscape:current-layer="Layer_1" /><style
     type="text/css"
     id="style111">
	.st0{fill-rule:evenodd;clip-rule:evenodd;fill:#5C6061;}
	.st1{fill-rule:evenodd;clip-rule:evenodd;fill:#5ABFC7;}
	.st2{fill-rule:evenodd;clip-rule:evenodd;fill:#0093CE;}
	.st3{fill-rule:evenodd;clip-rule:evenodd;fill:#2B2D2D;}
	.st4{fill-rule:evenodd;clip-rule:evenodd;fill:#C5A86C;}
	.st5{fill-rule:evenodd;clip-rule:evenodd;fill:#839A8F;}
	.st6{fill-rule:evenodd;clip-rule:evenodd;fill:#4CA3AB;}
	.st7{fill-rule:evenodd;clip-rule:evenodd;fill:#9EC645;}
	.st8{fill-rule:evenodd;clip-rule:evenodd;fill:#C8C475;}
	.st9{fill-rule:evenodd;clip-rule:evenodd;fill:#E5A456;}
	.st10{fill-rule:evenodd;clip-rule:evenodd;fill:#BB639E;}
	.st11{fill-rule:evenodd;clip-rule:evenodd;fill:#C18D63;}
	.st12{fill-rule:evenodd;clip-rule:evenodd;fill:#A1BBAE;}
	.st13{fill-rule:evenodd;clip-rule:evenodd;fill:#C3CACB;}
	.st14{fill-rule:evenodd;clip-rule:evenodd;fill:#E18882;}
	.st15{fill-rule:evenodd;clip-rule:evenodd;fill:#7F8272;}
	.st16{fill-rule:evenodd;clip-rule:evenodd;fill:#DB3D57;}
	.st17{fill-rule:evenodd;clip-rule:evenodd;fill:#EBC32E;}
</style><g
     id="XMLID_2_"
     transform="matrix(0.16666667,0,0,0.16666667,-3.1333334,0)"><path
       class="st0"
       d="m 22.8,0 h 48 c 2.2,0 4,1.8 4,4 v 88 c 0,2.2 -1.8,4 -4,4 h -48 c -2.2,0 -4,-1.8 -4,-4 V 4 c 0,-2.2 1.8,-4 4,-4 z m 0,12 v 72 h 48 V 12 Z"
       id="XMLID_28_" /><rect
       class="st1"
       height="52"
       id="XMLID_27_"
       width="48"
       x="22.799999"
       y="12" /><rect
       class="st2"
       height="20"
       id="XMLID_26_"
       width="48"
       x="22.799999"
       y="64" /><path
       class="st3"
       d="m 40.8,4 h 12 c 1.1,0 2,0.9 2,2 v 0 c 0,1.1 -0.9,2 -2,2 h -12 c -1.1,0 -2,-0.9 -2,-2 v 0 c 0,-1.1 0.9,-2 2,-2 z"
       id="XMLID_25_" /><path
       class="st3"
       d="m 30.8,8 c 1.1,0 2,-0.9 2,-2 0,-1.1 -0.9,-2 -2,-2 -1.1,0 -2,0.9 -2,2 0,1.1 0.9,2 2,2 z"
       id="XMLID_24_" /><path
       class="st3"
       d="m 42.8,88 h 8 c 1.1,0 2,0.9 2,2 v 0 c 0,1.1 -0.9,2 -2,2 h -8 c -1.1,0 -2,-0.9 -2,-2 v 0 c 0,-1.1 0.9,-2 2,-2 z"
       id="XMLID_23_" /><path
       class="st4"
       d="m 29.3,20 h 5 c 1.4,0 2.5,1.1 2.5,2.5 v 5 c 0,1.4 -1.1,2.5 -2.5,2.5 h -5 c -1.4,0 -2.5,-1.1 -2.5,-2.5 v -5 c 0,-1.4 1.1,-2.5 2.5,-2.5 z"
       id="XMLID_22_" /><path
       class="st5"
       d="m 44.3,20 h 5 c 1.4,0 2.5,1.1 2.5,2.5 v 5 c 0,1.4 -1.1,2.5 -2.5,2.5 h -5 c -1.4,0 -2.5,-1.1 -2.5,-2.5 v -5 c 0,-1.4 1.1,-2.5 2.5,-2.5 z"
       id="XMLID_21_" /><path
       class="st6"
       d="m 59.3,20 h 5 c 1.4,0 2.5,1.1 2.5,2.5 v 5 c 0,1.4 -1.1,2.5 -2.5,2.5 h -5 c -1.4,0 -2.5,-1.1 -2.5,-2.5 v -5 c 0,-1.4 1.1,-2.5 2.5,-2.5 z"
       id="XMLID_20_" /><path
       class="st7"
       d="m 29.3,34 h 5 c 1.4,0 2.5,1.1 2.5,2.5 v 5 c 0,1.4 -1.1,2.5 -2.5,2.5 h -5 c -1.4,0 -2.5,-1.1 -2.5,-2.5 v -5 c 0,-1.4 1.1,-2.5 2.5,-2.5 z"
       id="XMLID_19_" /><path
       class="st8"
       d="m 44.3,34 h 5 c 1.4,0 2.5,1.1 2.5,2.5 v 5 c 0,1.4 -1.1,2.5 -2.5,2.5 h -5 c -1.4,0 -2.5,-1.1 -2.5,-2.5 v -5 c 0,-1.4 1.1,-2.5 2.5,-2.5 z"
       id="XMLID_18_" /><path
       class="st9"
       d="m 59.3,34 h 5 c 1.4,0 2.5,1.1 2.5,2.5 v 5 c 0,1.4 -1.1,2.5 -2.5,2.5 h -5 c -1.4,0 -2.5,-1.1 -2.5,-2.5 v -5 c 0,-1.4 1.1,-2.5 2.5,-2.5 z"
       id="XMLID_17_" /><path
       class="st4"
       d="m 29.3,48 h 5 c 1.4,0 2.5,1.1 2.5,2.5 v 5 c 0,1.4 -1.1,2.5 -2.5,2.5 h -5 c -1.4,0 -2.5,-1.1 -2.5,-2.5 v -5 c 0,-1.4 1.1,-2.5 2.5,-2.5 z"
       id="XMLID_16_" /><path
       class="st10"
       d="m 44.3,48 h 5 c 1.4,0 2.5,1.1 2.5,2.5 v 5 c 0,1.4 -1.1,2.5 -2.5,2.5 h -5 c -1.4,0 -2.5,-1.1 -2.5,-2.5 v -5 c 0,-1.4 1.1,-2.5 2.5,-2.5 z"
       id="XMLID_15_" /><path
       class="st11"
       d="m 59.3,48 h 5 c 1.4,0 2.5,1.1 2.5,2.5 v 5 c 0,1.4 -1.1,2.5 -2.5,2.5 h -5 c -1.4,0 -2.5,-1.1 -2.5,-2.5 v -5 c 0,-1.4 1.1,-2.5 2.5,-2.5 z"
       id="XMLID_14_" /><path
       class="st12"
       d="m 28.8,14 h 36 c 1.1,0 2,0.9 2,2 v 0 c 0,1.1 -0.9,2 -2,2 h -36 c -1.1,0 -2,-0.9 -2,-2 v 0 c 0,-1.1 0.9,-2 2,-2 z"
       id="XMLID_13_" /><circle
       class="st13"
       cx="54.799999"
       cy="64"
       id="XMLID_12_"
       r="2" /><circle
       class="st13"
       cx="46.799999"
       cy="64"
       id="XMLID_11_"
       r="2" /><circle
       class="st3"
       cx="38.799999"
       cy="64"
       id="XMLID_10_"
       r="2" /><path
       class="st7"
       d="m 29.3,70 h 5 c 1.4,0 2.5,1.1 2.5,2.5 v 5 c 0,1.4 -1.1,2.5 -2.5,2.5 h -5 c -1.4,0 -2.5,-1.1 -2.5,-2.5 v -5 c 0,-1.4 1.1,-2.5 2.5,-2.5 z"
       id="XMLID_9_" /><path
       class="st14"
       d="m 44.3,70 h 5 c 1.4,0 2.5,1.1 2.5,2.5 v 5 c 0,1.4 -1.1,2.5 -2.5,2.5 h -5 c -1.4,0 -2.5,-1.1 -2.5,-2.5 v -5 c 0,-1.4 1.1,-2.5 2.5,-2.5 z"
       id="XMLID_8_" /><path
       class="st12"
       d="m 59.3,70 h 5 c 1.4,0 2.5,1.1 2.5,2.5 v 5 c 0,1.4 -1.1,2.5 -2.5,2.5 h -5 c -1.4,0 -2.5,-1.1 -2.5,-2.5 v -5 c 0,-1.4 1.1,-2.5 2.5,-2.5 z"
       id="XMLID_7_" /><path
       class="st15"
       d="m 31.8,27 c 1.1,0 2,-0.9 2,-2 0,-1.1 -0.9,-2 -2,-2 -1.1,0 -2,0.9 -2,2 0,1.1 0.9,2 2,2 z"
       id="XMLID_6_" /><path
       class="st16"
       d="m 44.8,51 h 4 c 1.1,0 2,0.9 2,2 v 0 c 0,1.1 -0.9,2 -2,2 h -4 c -1.1,0 -2,-0.9 -2,-2 v 0 c 0,-1.1 0.9,-2 2,-2 z"
       id="XMLID_5_" /><path
       class="st17"
       d="m 61.8,43 c 2.2,0 4,-1.8 4,-4 0,-2.2 -1.8,-4 -4,-4 -2.2,0 -4,1.8 -4,4 0,2.2 1.8,4 4,4 z"
       id="XMLID_4_" /><path
       class="st17"
       d="m 31.8,77 c 1.1,0 2,-0.9 2,-2 0,-1.1 -0.9,-2 -2,-2 -1.1,0 -2,0.9 -2,2 0,1.1 0.9,2 2,2 z"
       id="XMLID_3_" /></g></svg>
