<?xml version="1.0" encoding="UTF-8" standalone="no"?>
<svg
   xmlns:dc="http://purl.org/dc/elements/1.1/"
   xmlns:cc="http://creativecommons.org/ns#"
   xmlns:rdf="http://www.w3.org/1999/02/22-rdf-syntax-ns#"
   xmlns:svg="http://www.w3.org/2000/svg"
   xmlns="http://www.w3.org/2000/svg"
   xmlns:xlink="http://www.w3.org/1999/xlink"
   xmlns:sodipodi="http://sodipodi.sourceforge.net/DTD/sodipodi-0.dtd"
   xmlns:inkscape="http://www.inkscape.org/namespaces/inkscape"
   version="1.1"
   id="Layer_1"
   x="0px"
   y="0px"
   viewBox="0 0 122.88 122.88"
   style="enable-background:new 0 0 122.88 122.88"
   xml:space="preserve"
   sodipodi:docname="blueman-trust.svg"
   inkscape:version="1.0.2 (e86c870879, 2021-01-15, custom)"><metadata
     id="metadata955"><rdf:RDF><cc:Work
         rdf:about=""><dc:format>image/svg+xml</dc:format><dc:type
           rdf:resource="http://purl.org/dc/dcmitype/StillImage" /><dc:title></dc:title></cc:Work></rdf:RDF></metadata><defs
     id="defs953"><linearGradient
       inkscape:collect="always"
       id="linearGradient972"><stop
         style="stop-color:#ffffb2;stop-opacity:1;"
         offset="0"
         id="stop968" /><stop
         style="stop-color:#ffffb2;stop-opacity:0;"
         offset="1"
         id="stop970" /></linearGradient><linearGradient
       inkscape:collect="always"
       xlink:href="#linearGradient972"
       id="linearGradient974"
       x1="28.10618"
       y1="32.51038"
       x2="99.348053"
       y2="6.1726851"
       gradientUnits="userSpaceOnUse" /></defs><sodipodi:namedview
     pagecolor="#0e14ff"
     bordercolor="#666666"
     borderopacity="1"
     objecttolerance="10"
     gridtolerance="10"
     guidetolerance="10"
     inkscape:pageopacity="0"
     inkscape:pageshadow="2"
     inkscape:window-width="1366"
     inkscape:window-height="768"
     id="namedview951"
     showgrid="false"
     inkscape:zoom="1.1739095"
     inkscape:cx="61.44"
     inkscape:cy="47.716967"
     inkscape:window-x="0"
     inkscape:window-y="0"
     inkscape:window-maximized="0"
     inkscape:current-layer="Layer_1" /><style
     type="text/css"
     id="style944">.st0{fill-rule:evenodd;clip-rule:evenodd;}</style><g
     id="g948"><path
       class="st0"
       d="M62.43,122.88h-1.98c0-16.15-6.04-30.27-18.11-42.34C30.27,68.47,16.16,62.43,0,62.43v-1.98 c16.16,0,30.27-6.04,42.34-18.14C54.41,30.21,60.45,16.1,60.45,0h1.98c0,16.15,6.04,30.27,18.11,42.34 c12.07,12.07,26.18,18.11,42.34,18.11v1.98c-16.15,0-30.27,6.04-42.34,18.11C68.47,92.61,62.43,106.72,62.43,122.88L62.43,122.88z"
       id="path946"
       style="fill:#ffff00;fill-opacity:1" /></g><g
     id="g961"
     style="fill:url(#linearGradient974);fill-opacity:1"><path
       id="path959"
       style="fill:url(#linearGradient974);fill-opacity:1.0"
       sodipodi:type="inkscape:offset"
       inkscape:radius="-0.10941312"
       inkscape:original="M 60.449219 0 C 60.449219 16.1 54.409844 30.210547 42.339844 42.310547 C 38.374182 46.286065 34.18379 49.593827 29.777344 52.261719 A 33.351147 33.327709 0 0 0 39.496094 53.708984 A 33.351147 33.327709 0 0 0 71.195312 30.734375 C 65.358387 21.474586 62.429688 11.22939 62.429688 0 L 60.449219 0 z "
       d="m 60.556641,0.109375 c -0.02752,16.081597 -6.079062,30.189713 -18.138672,42.279297 -3.906623,3.916332 -8.033737,7.182348 -12.369141,9.832031 3.061839,0.907212 6.253651,1.37865 9.447266,1.378906 3.476171,-1.99e-4 6.951366,-0.548926 10.257812,-1.621093 3.306447,-1.072168 6.443848,-2.667557 9.257813,-4.707032 2.813965,-2.039474 5.304759,-4.522381 7.351562,-7.330078 2.037327,-2.794696 3.631275,-5.910333 4.710938,-9.195312 C 65.265372,21.51202 62.3413,11.295806 62.322266,0.109375 Z" /></g></svg>
