<?xml version="1.0" encoding="UTF-8" standalone="no"?>
<svg
   xmlns:dc="http://purl.org/dc/elements/1.1/"
   xmlns:cc="http://creativecommons.org/ns#"
   xmlns:rdf="http://www.w3.org/1999/02/22-rdf-syntax-ns#"
   xmlns:svg="http://www.w3.org/2000/svg"
   xmlns="http://www.w3.org/2000/svg"
   xmlns:sodipodi="http://sodipodi.sourceforge.net/DTD/sodipodi-0.dtd"
   xmlns:inkscape="http://www.inkscape.org/namespaces/inkscape"
   version="1.1"
   id="Layer_1"
   x="0px"
   y="0px"
   viewBox="0 0 16 16"
   enable-background="new 0 0 64 64"
   xml:space="preserve"
   sodipodi:docname="search-flat.svg"
   width="16"
   height="16"
   inkscape:version="1.0.2 (e86c870879, 2021-01-15, custom)"><metadata
   id="metadata45"><rdf:RDF><cc:Work
       rdf:about=""><dc:format>image/svg+xml</dc:format><dc:type
         rdf:resource="http://purl.org/dc/dcmitype/StillImage" /><dc:title></dc:title></cc:Work></rdf:RDF></metadata><defs
   id="defs43" /><sodipodi:namedview
   pagecolor="#ffffff"
   bordercolor="#666666"
   borderopacity="1"
   objecttolerance="10"
   gridtolerance="10"
   guidetolerance="10"
   inkscape:pageopacity="0"
   inkscape:pageshadow="2"
   inkscape:window-width="1366"
   inkscape:window-height="752"
   id="namedview41"
   showgrid="false"
   inkscape:zoom="18.479697"
   inkscape:cx="-2.7393401"
   inkscape:cy="9.7651819"
   inkscape:window-x="0"
   inkscape:window-y="16"
   inkscape:window-maximized="0"
   inkscape:current-layer="Layer_1" />
<g
   id="g38"
   transform="matrix(0.40000308,0,0,0.40000308,-4.800037,-4.800037)"
   style="stroke-width:2.49998">
	<g
   id="g6"
   style="stroke-width:2.49998">
		<g
   id="g4"
   style="stroke-width:2.49998">
			
		</g>
	</g>
	<g
   id="g12"
   style="stroke-width:2.49998">
		<g
   id="g10"
   style="stroke-width:2.49998">
			<path
   fill="#ffffff"
   d="m 40,26 c 0,3.1 -1,6 -2.7,8.3 L 40,37 37,40 34.3,37.3 C 32,39 29.1,40 26,40 18.3,40 12,33.7 12,26 c 0,-7.7 6.3,-14 14,-14 7.7,0 14,6.3 14,14 z"
   id="path8"
   style="fill:#afdde9;fill-opacity:1;stroke:none;stroke-width:2.49998;stroke-opacity:1" />
		</g>
	</g>
	<g
   id="g18"
   style="stroke-width:2.49998">
		<g
   id="g16"
   style="stroke-width:2.49998">
			<path
   fill="#68b2ea"
   d="m 26,14.9 c 6.1,0 11.1,5 11.1,11.1 0,6.1 -5,11.1 -11.1,11.1 -6.1,0 -11.1,-5 -11.1,-11.1 0,-6.1 5,-11.1 11.1,-11.1 z"
   id="path14"
   style="stroke-width:6.2499" />
		</g>
	</g>
	<g
   id="g24"
   style="stroke-width:2.49998">
		<g
   id="g22"
   style="stroke-width:2.49998">
			<polygon
   fill="#ffea29"
   points="39.2,35.2 44,40 40,44 35.2,39.2 35.8,38.8 38.8,35.8 "
   id="polygon20"
   style="stroke-width:6.2499" />
		</g>
	</g>
	<g
   id="g30"
   style="stroke-width:2.49998">
		<g
   id="g28"
   style="stroke-width:2.49998">
			
				<rect
   x="42.200001"
   y="37.900002"
   transform="matrix(0.7071,-0.7071,0.7071,0.7071,-18.6396,45)"
   fill="#2c2c3d"
   width="5.6999998"
   height="14.1"
   id="rect26"
   style="stroke-width:6.2499" />
		</g>
	</g>
	<g
   id="g36"
   style="stroke-width:2.49998">
		<g
   id="g34"
   style="stroke-width:2.49998">
			<path
   fill="#ffffff"
   d="m 24.1,17.3 c 0.5,0 1,0.4 1,1 0,0.5 -0.4,1 -1,1 -2.3,0 -4.8,2.5 -4.8,4.8 0,0.5 -0.4,1 -1,1 -0.5,0 -1,-0.4 -1,-1 0,-3.4 3.3,-6.8 6.8,-6.8 z"
   id="path32"
   style="stroke-width:6.2499" />
		</g>
	</g>
</g>
</svg>
